<svg xmlns="http://www.w3.org/2000/svg" width="153" height="34" viewBox="0 0 180 40" fill="none">
    <path fill-rule="evenodd" clip-rule="evenodd"
        d="M20 40C31.0457 40 40 31.0457 40 20C40 8.95431 31.0457 0 20 0C8.95431 0 0 8.95431 0 20C0 31.0457 8.95431 40 20 40ZM17.6648 13.1505C18.1237 13.5691 18.8119 13.7784 19.7296 13.7784C20.6692 13.7784 21.423 13.5251 21.9911 13.0183C22.5592 12.4896 22.8432 11.7845 22.8432 10.9032C22.8432 10.1762 22.592 9.61434 22.0894 9.21776C21.5869 8.82118 20.9314 8.62288 20.1229 8.62288C19.2271 8.62288 18.4733 8.88727 17.8615 9.41605C17.2715 9.92279 16.9766 10.5617 16.9766 11.3329C16.9766 12.104 17.206 12.7099 17.6648 13.1505ZM38.9256 13.5186C33.3412 22.2985 25.7697 32.9501 18.8884 33.2899C11.8693 33.6365 14.3541 22.4518 15.1834 18.7189L15.244 18.4455C15.8485 15.7077 17.5106 15.5566 18.8884 15.7343C20.3619 16.1133 20.1871 16.7714 19.9882 17.5197C19.9772 17.5614 19.966 17.6033 19.9551 17.6455C18.2662 23.0529 16.4884 32.721 22.8884 28.1343C28.8532 23.8596 35.1139 15.5597 37.9287 11.1284C38.3105 11.8984 38.6441 12.6964 38.9256 13.5186Z"
        fill="#0061FF"></path>
    <path fill-rule="evenodd" clip-rule="evenodd"
        d="M38.9291 13.5192C33.3447 22.299 25.7734 32.9499 18.8923 33.2897C11.8732 33.6364 14.358 22.4517 15.1873 18.7187L15.2479 18.4453C15.8524 15.7075 17.5145 15.5564 18.8923 15.7342C20.3659 16.1131 20.191 16.7712 19.9921 17.5196C19.9811 17.5612 19.9699 17.6031 19.959 17.6453C18.2701 23.0527 16.4923 32.7209 22.8923 28.1342C28.8568 23.8596 35.1172 15.5603 37.9322 11.1289C38.314 11.8989 38.6476 12.697 38.9291 13.5192ZM17.6687 13.1507C18.1276 13.5693 18.8159 13.7786 19.7335 13.7786C20.6731 13.7786 21.4269 13.5252 21.995 13.0185C22.5631 12.4897 22.8471 11.7847 22.8471 10.9034C22.8471 10.1763 22.5959 9.6145 22.0933 9.21792C21.5908 8.82134 20.9353 8.62305 20.1268 8.62305C19.231 8.62305 18.4772 8.88743 17.8654 9.41621C17.2754 9.92295 16.9805 10.5619 16.9805 11.333C16.9805 12.1041 17.2099 12.71 17.6687 13.1507Z"
        fill="white"></path>
</svg>